<mxfile host="app.diagrams.net" modified="2024-07-23T02:44:20.445Z" agent="Mozilla/5.0 (Windows NT 10.0; Win64; x64) AppleWebKit/537.36 (KHTML, like Gecko) Chrome/126.0.0.0 Safari/537.36" etag="oHpr0V_qVZHXZLOjpLgr" version="24.7.3" type="device">
  <diagram name="Page-1" id="osEx6X7hPVMaVjj1h7Zy">
    <mxGraphModel dx="681" dy="429" grid="1" gridSize="10" guides="1" tooltips="1" connect="1" arrows="1" fold="1" page="1" pageScale="1" pageWidth="850" pageHeight="1100" math="0" shadow="0">
      <root>
        <mxCell id="0" />
        <mxCell id="1" parent="0" />
        <mxCell id="ENw4jUdtAGt3AjiNGGgb-1" value="nama_tengah" style="ellipse;whiteSpace=wrap;html=1;align=center;" vertex="1" parent="1">
          <mxGeometry x="170" y="60" width="100" height="40" as="geometry" />
        </mxCell>
        <mxCell id="ENw4jUdtAGt3AjiNGGgb-4" value="" style="endArrow=none;html=1;rounded=0;" edge="1" parent="1" source="ENw4jUdtAGt3AjiNGGgb-1">
          <mxGeometry relative="1" as="geometry">
            <mxPoint x="219.5" y="100" as="sourcePoint" />
            <mxPoint x="220" y="170" as="targetPoint" />
          </mxGeometry>
        </mxCell>
        <mxCell id="ENw4jUdtAGt3AjiNGGgb-5" value="nama_depan" style="ellipse;whiteSpace=wrap;html=1;align=center;" vertex="1" parent="1">
          <mxGeometry x="50" y="110" width="100" height="40" as="geometry" />
        </mxCell>
        <mxCell id="ENw4jUdtAGt3AjiNGGgb-6" value="nama_belakang" style="ellipse;whiteSpace=wrap;html=1;align=center;" vertex="1" parent="1">
          <mxGeometry x="300" y="110" width="100" height="40" as="geometry" />
        </mxCell>
        <mxCell id="ENw4jUdtAGt3AjiNGGgb-8" value="" style="endArrow=none;html=1;rounded=0;entryX=0;entryY=0.5;entryDx=0;entryDy=0;" edge="1" parent="1" source="ENw4jUdtAGt3AjiNGGgb-5" target="ENw4jUdtAGt3AjiNGGgb-6">
          <mxGeometry relative="1" as="geometry">
            <mxPoint x="150" y="160" as="sourcePoint" />
            <mxPoint x="290" y="140" as="targetPoint" />
            <Array as="points">
              <mxPoint x="220" y="170" />
            </Array>
          </mxGeometry>
        </mxCell>
        <mxCell id="ENw4jUdtAGt3AjiNGGgb-10" value="nama" style="ellipse;whiteSpace=wrap;html=1;align=center;" vertex="1" parent="1">
          <mxGeometry x="170" y="170" width="100" height="40" as="geometry" />
        </mxCell>
        <mxCell id="ENw4jUdtAGt3AjiNGGgb-14" value="&lt;u&gt;nim&lt;/u&gt;" style="ellipse;whiteSpace=wrap;html=1;align=center;" vertex="1" parent="1">
          <mxGeometry x="30" y="180" width="80" height="40" as="geometry" />
        </mxCell>
        <mxCell id="ENw4jUdtAGt3AjiNGGgb-15" value="jurusan" style="ellipse;whiteSpace=wrap;html=1;align=center;" vertex="1" parent="1">
          <mxGeometry x="10" y="250" width="80" height="40" as="geometry" />
        </mxCell>
        <mxCell id="ENw4jUdtAGt3AjiNGGgb-16" value="alamat" style="ellipse;whiteSpace=wrap;html=1;align=center;" vertex="1" parent="1">
          <mxGeometry x="40" y="320" width="80" height="40" as="geometry" />
        </mxCell>
        <mxCell id="ENw4jUdtAGt3AjiNGGgb-26" value="Mahasiswa" style="whiteSpace=wrap;html=1;align=center;" vertex="1" parent="1">
          <mxGeometry x="180" y="250" width="90" height="40" as="geometry" />
        </mxCell>
        <mxCell id="ENw4jUdtAGt3AjiNGGgb-27" value="" style="endArrow=none;html=1;rounded=0;entryX=0.5;entryY=1;entryDx=0;entryDy=0;" edge="1" parent="1" target="ENw4jUdtAGt3AjiNGGgb-10">
          <mxGeometry relative="1" as="geometry">
            <mxPoint x="220" y="210" as="sourcePoint" />
            <mxPoint x="220" y="210" as="targetPoint" />
            <Array as="points">
              <mxPoint x="220" y="250" />
            </Array>
          </mxGeometry>
        </mxCell>
        <mxCell id="ENw4jUdtAGt3AjiNGGgb-29" value="" style="endArrow=none;html=1;rounded=0;entryX=1;entryY=0.5;entryDx=0;entryDy=0;exitX=1;exitY=0.5;exitDx=0;exitDy=0;" edge="1" parent="1" source="ENw4jUdtAGt3AjiNGGgb-14" target="ENw4jUdtAGt3AjiNGGgb-16">
          <mxGeometry relative="1" as="geometry">
            <mxPoint x="130" y="210" as="sourcePoint" />
            <mxPoint x="190" y="440" as="targetPoint" />
            <Array as="points">
              <mxPoint x="170" y="270" />
            </Array>
          </mxGeometry>
        </mxCell>
        <mxCell id="ENw4jUdtAGt3AjiNGGgb-34" value="" style="endArrow=none;html=1;rounded=0;entryX=0;entryY=0.5;entryDx=0;entryDy=0;" edge="1" parent="1" source="ENw4jUdtAGt3AjiNGGgb-15" target="ENw4jUdtAGt3AjiNGGgb-26">
          <mxGeometry relative="1" as="geometry">
            <mxPoint x="100" y="269.5" as="sourcePoint" />
            <mxPoint x="140" y="270" as="targetPoint" />
          </mxGeometry>
        </mxCell>
        <mxCell id="ENw4jUdtAGt3AjiNGGgb-38" value="jurusan" style="ellipse;whiteSpace=wrap;html=1;align=center;" vertex="1" parent="1">
          <mxGeometry x="410" y="90" width="80" height="40" as="geometry" />
        </mxCell>
        <mxCell id="ENw4jUdtAGt3AjiNGGgb-39" value="alamat" style="ellipse;whiteSpace=wrap;html=1;align=center;" vertex="1" parent="1">
          <mxGeometry x="388" y="170" width="75" height="40" as="geometry" />
        </mxCell>
        <mxCell id="ENw4jUdtAGt3AjiNGGgb-40" value="&lt;u&gt;nim&lt;/u&gt;" style="ellipse;whiteSpace=wrap;html=1;align=center;" vertex="1" parent="1">
          <mxGeometry x="600" y="90" width="80" height="40" as="geometry" />
        </mxCell>
        <mxCell id="ENw4jUdtAGt3AjiNGGgb-41" value="nama" style="ellipse;whiteSpace=wrap;html=1;align=center;" vertex="1" parent="1">
          <mxGeometry x="630" y="160" width="80" height="40" as="geometry" />
        </mxCell>
        <mxCell id="ENw4jUdtAGt3AjiNGGgb-47" value="" style="endArrow=none;html=1;rounded=0;" edge="1" parent="1" target="ENw4jUdtAGt3AjiNGGgb-48">
          <mxGeometry relative="1" as="geometry">
            <mxPoint x="270" y="269.5" as="sourcePoint" />
            <mxPoint x="520" y="270" as="targetPoint" />
          </mxGeometry>
        </mxCell>
        <mxCell id="ENw4jUdtAGt3AjiNGGgb-138" value="Many" style="edgeLabel;html=1;align=center;verticalAlign=middle;resizable=0;points=[];" vertex="1" connectable="0" parent="ENw4jUdtAGt3AjiNGGgb-47">
          <mxGeometry x="-0.1005" y="-1" relative="1" as="geometry">
            <mxPoint y="9" as="offset" />
          </mxGeometry>
        </mxCell>
        <mxCell id="ENw4jUdtAGt3AjiNGGgb-48" value="Mendaftar" style="shape=rhombus;perimeter=rhombusPerimeter;whiteSpace=wrap;html=1;align=center;" vertex="1" parent="1">
          <mxGeometry x="490" y="230" width="100" height="80" as="geometry" />
        </mxCell>
        <mxCell id="ENw4jUdtAGt3AjiNGGgb-51" value="" style="endArrow=none;html=1;rounded=0;" edge="1" parent="1" source="ENw4jUdtAGt3AjiNGGgb-38" target="ENw4jUdtAGt3AjiNGGgb-40">
          <mxGeometry relative="1" as="geometry">
            <mxPoint x="450" y="130" as="sourcePoint" />
            <mxPoint x="610" y="130" as="targetPoint" />
            <Array as="points">
              <mxPoint x="540" y="230" />
            </Array>
          </mxGeometry>
        </mxCell>
        <mxCell id="ENw4jUdtAGt3AjiNGGgb-59" value="" style="endArrow=none;html=1;rounded=0;" edge="1" parent="1" target="ENw4jUdtAGt3AjiNGGgb-41">
          <mxGeometry relative="1" as="geometry">
            <mxPoint x="460" y="200" as="sourcePoint" />
            <mxPoint x="640" y="200" as="targetPoint" />
            <Array as="points">
              <mxPoint x="540" y="230" />
            </Array>
          </mxGeometry>
        </mxCell>
        <mxCell id="ENw4jUdtAGt3AjiNGGgb-74" value="nama" style="ellipse;whiteSpace=wrap;html=1;align=center;" vertex="1" parent="1">
          <mxGeometry x="800" y="80" width="80" height="40" as="geometry" />
        </mxCell>
        <mxCell id="ENw4jUdtAGt3AjiNGGgb-77" value="jurusan" style="ellipse;whiteSpace=wrap;html=1;align=center;" vertex="1" parent="1">
          <mxGeometry x="920" y="80" width="80" height="40" as="geometry" />
        </mxCell>
        <mxCell id="ENw4jUdtAGt3AjiNGGgb-78" value="&lt;u&gt;nomor_anggota&lt;/u&gt;" style="ellipse;whiteSpace=wrap;html=1;align=center;" vertex="1" parent="1">
          <mxGeometry x="780" y="160" width="100" height="40" as="geometry" />
        </mxCell>
        <mxCell id="ENw4jUdtAGt3AjiNGGgb-79" value="masa_berlaku" style="ellipse;whiteSpace=wrap;html=1;align=center;" vertex="1" parent="1">
          <mxGeometry x="950" y="160" width="100" height="40" as="geometry" />
        </mxCell>
        <mxCell id="ENw4jUdtAGt3AjiNGGgb-80" value="Anggota&lt;div&gt;Perpustakaan&lt;/div&gt;" style="whiteSpace=wrap;html=1;align=center;" vertex="1" parent="1">
          <mxGeometry x="860" y="250" width="100" height="40" as="geometry" />
        </mxCell>
        <mxCell id="ENw4jUdtAGt3AjiNGGgb-81" value="" style="endArrow=none;html=1;rounded=0;exitX=1;exitY=0.5;exitDx=0;exitDy=0;entryX=0;entryY=0.5;entryDx=0;entryDy=0;" edge="1" parent="1">
          <mxGeometry relative="1" as="geometry">
            <mxPoint x="595" y="260" as="sourcePoint" />
            <mxPoint x="864.9999999999998" y="260" as="targetPoint" />
          </mxGeometry>
        </mxCell>
        <mxCell id="ENw4jUdtAGt3AjiNGGgb-136" value="Many" style="edgeLabel;html=1;align=center;verticalAlign=middle;resizable=0;points=[];" vertex="1" connectable="0" parent="ENw4jUdtAGt3AjiNGGgb-81">
          <mxGeometry x="-0.0921" y="-2" relative="1" as="geometry">
            <mxPoint x="-3" y="18" as="offset" />
          </mxGeometry>
        </mxCell>
        <mxCell id="ENw4jUdtAGt3AjiNGGgb-82" value="" style="endArrow=none;html=1;rounded=0;exitX=0.5;exitY=1;exitDx=0;exitDy=0;entryX=0.5;entryY=1;entryDx=0;entryDy=0;" edge="1" parent="1" source="ENw4jUdtAGt3AjiNGGgb-78" target="ENw4jUdtAGt3AjiNGGgb-79">
          <mxGeometry relative="1" as="geometry">
            <mxPoint x="830" y="200" as="sourcePoint" />
            <mxPoint x="990" y="210" as="targetPoint" />
            <Array as="points">
              <mxPoint x="910" y="250" />
            </Array>
          </mxGeometry>
        </mxCell>
        <mxCell id="ENw4jUdtAGt3AjiNGGgb-85" value="" style="endArrow=none;html=1;rounded=0;exitX=0.968;exitY=0.636;exitDx=0;exitDy=0;exitPerimeter=0;" edge="1" parent="1" source="ENw4jUdtAGt3AjiNGGgb-74" target="ENw4jUdtAGt3AjiNGGgb-77">
          <mxGeometry relative="1" as="geometry">
            <mxPoint x="850" y="140" as="sourcePoint" />
            <mxPoint x="970" y="110" as="targetPoint" />
            <Array as="points">
              <mxPoint x="910" y="250" />
            </Array>
          </mxGeometry>
        </mxCell>
        <mxCell id="ENw4jUdtAGt3AjiNGGgb-87" value="kode_peminjaman" style="ellipse;whiteSpace=wrap;html=1;align=center;" vertex="1" parent="1">
          <mxGeometry x="720" y="330" width="100" height="40" as="geometry" />
        </mxCell>
        <mxCell id="ENw4jUdtAGt3AjiNGGgb-88" value="&lt;u&gt;nomor_anggota&lt;/u&gt;" style="ellipse;whiteSpace=wrap;html=1;align=center;" vertex="1" parent="1">
          <mxGeometry x="970" y="320" width="100" height="40" as="geometry" />
        </mxCell>
        <mxCell id="ENw4jUdtAGt3AjiNGGgb-89" value="tanggal_kembali" style="ellipse;whiteSpace=wrap;html=1;align=center;" vertex="1" parent="1">
          <mxGeometry x="700" y="395" width="100" height="40" as="geometry" />
        </mxCell>
        <mxCell id="ENw4jUdtAGt3AjiNGGgb-90" value="tanggal_pinjam" style="ellipse;whiteSpace=wrap;html=1;align=center;" vertex="1" parent="1">
          <mxGeometry x="680" y="460" width="100" height="40" as="geometry" />
        </mxCell>
        <mxCell id="ENw4jUdtAGt3AjiNGGgb-91" value="&lt;u&gt;nomor_buku&lt;/u&gt;" style="ellipse;whiteSpace=wrap;html=1;align=center;" vertex="1" parent="1">
          <mxGeometry x="1040" y="380" width="100" height="40" as="geometry" />
        </mxCell>
        <mxCell id="ENw4jUdtAGt3AjiNGGgb-92" value="judul_buku" style="ellipse;whiteSpace=wrap;html=1;align=center;" vertex="1" parent="1">
          <mxGeometry x="1050" y="450" width="100" height="40" as="geometry" />
        </mxCell>
        <mxCell id="ENw4jUdtAGt3AjiNGGgb-93" value="denda" style="ellipse;whiteSpace=wrap;html=1;align=center;" vertex="1" parent="1">
          <mxGeometry x="1060" y="530" width="80" height="40" as="geometry" />
        </mxCell>
        <mxCell id="ENw4jUdtAGt3AjiNGGgb-95" value="Meminjam" style="shape=rhombus;perimeter=rhombusPerimeter;whiteSpace=wrap;html=1;align=center;" vertex="1" parent="1">
          <mxGeometry x="865" y="360" width="90" height="110" as="geometry" />
        </mxCell>
        <mxCell id="ENw4jUdtAGt3AjiNGGgb-97" value="" style="endArrow=none;html=1;rounded=0;entryX=0.5;entryY=0;entryDx=0;entryDy=0;" edge="1" parent="1" target="ENw4jUdtAGt3AjiNGGgb-95">
          <mxGeometry relative="1" as="geometry">
            <mxPoint x="910" y="290" as="sourcePoint" />
            <mxPoint x="910" y="370" as="targetPoint" />
          </mxGeometry>
        </mxCell>
        <mxCell id="ENw4jUdtAGt3AjiNGGgb-135" value="1" style="edgeLabel;html=1;align=center;verticalAlign=middle;resizable=0;points=[];" vertex="1" connectable="0" parent="ENw4jUdtAGt3AjiNGGgb-97">
          <mxGeometry x="0.049" relative="1" as="geometry">
            <mxPoint as="offset" />
          </mxGeometry>
        </mxCell>
        <mxCell id="ENw4jUdtAGt3AjiNGGgb-100" value="" style="endArrow=none;html=1;rounded=0;entryX=0;entryY=0.5;entryDx=0;entryDy=0;" edge="1" parent="1" target="ENw4jUdtAGt3AjiNGGgb-95">
          <mxGeometry relative="1" as="geometry">
            <mxPoint x="820" y="355" as="sourcePoint" />
            <mxPoint x="940" y="395" as="targetPoint" />
          </mxGeometry>
        </mxCell>
        <mxCell id="ENw4jUdtAGt3AjiNGGgb-101" value="" style="endArrow=none;html=1;rounded=0;entryX=-0.041;entryY=0.509;entryDx=0;entryDy=0;entryPerimeter=0;" edge="1" parent="1" target="ENw4jUdtAGt3AjiNGGgb-95">
          <mxGeometry relative="1" as="geometry">
            <mxPoint x="800" y="420" as="sourcePoint" />
            <mxPoint x="870" y="440" as="targetPoint" />
          </mxGeometry>
        </mxCell>
        <mxCell id="ENw4jUdtAGt3AjiNGGgb-102" value="" style="endArrow=none;html=1;rounded=0;entryX=0;entryY=0.5;entryDx=0;entryDy=0;" edge="1" parent="1" target="ENw4jUdtAGt3AjiNGGgb-95">
          <mxGeometry relative="1" as="geometry">
            <mxPoint x="780" y="480" as="sourcePoint" />
            <mxPoint x="950" y="440" as="targetPoint" />
          </mxGeometry>
        </mxCell>
        <mxCell id="ENw4jUdtAGt3AjiNGGgb-103" value="" style="endArrow=none;html=1;rounded=0;exitX=1;exitY=0.5;exitDx=0;exitDy=0;" edge="1" parent="1" source="ENw4jUdtAGt3AjiNGGgb-95">
          <mxGeometry relative="1" as="geometry">
            <mxPoint x="920" y="440" as="sourcePoint" />
            <mxPoint x="1020" y="360" as="targetPoint" />
          </mxGeometry>
        </mxCell>
        <mxCell id="ENw4jUdtAGt3AjiNGGgb-104" value="" style="endArrow=none;html=1;rounded=0;entryX=0;entryY=0.75;entryDx=0;entryDy=0;entryPerimeter=0;exitX=1;exitY=0.5;exitDx=0;exitDy=0;" edge="1" parent="1" source="ENw4jUdtAGt3AjiNGGgb-95" target="ENw4jUdtAGt3AjiNGGgb-91">
          <mxGeometry relative="1" as="geometry">
            <mxPoint x="850" y="510" as="sourcePoint" />
            <mxPoint x="1010" y="510" as="targetPoint" />
          </mxGeometry>
        </mxCell>
        <mxCell id="ENw4jUdtAGt3AjiNGGgb-108" value="" style="endArrow=none;html=1;rounded=0;entryX=0.007;entryY=0.733;entryDx=0;entryDy=0;entryPerimeter=0;exitX=1;exitY=0.5;exitDx=0;exitDy=0;" edge="1" parent="1" source="ENw4jUdtAGt3AjiNGGgb-95" target="ENw4jUdtAGt3AjiNGGgb-92">
          <mxGeometry relative="1" as="geometry">
            <mxPoint x="850" y="510" as="sourcePoint" />
            <mxPoint x="1010" y="510" as="targetPoint" />
          </mxGeometry>
        </mxCell>
        <mxCell id="ENw4jUdtAGt3AjiNGGgb-110" value="" style="endArrow=none;html=1;rounded=0;entryX=0.375;entryY=0;entryDx=0;entryDy=0;entryPerimeter=0;exitX=1;exitY=0.5;exitDx=0;exitDy=0;" edge="1" parent="1" source="ENw4jUdtAGt3AjiNGGgb-95" target="ENw4jUdtAGt3AjiNGGgb-93">
          <mxGeometry relative="1" as="geometry">
            <mxPoint x="960" y="420" as="sourcePoint" />
            <mxPoint x="1010" y="510" as="targetPoint" />
          </mxGeometry>
        </mxCell>
        <mxCell id="ENw4jUdtAGt3AjiNGGgb-114" value="Buku" style="whiteSpace=wrap;html=1;align=center;" vertex="1" parent="1">
          <mxGeometry x="860" y="550" width="100" height="40" as="geometry" />
        </mxCell>
        <mxCell id="ENw4jUdtAGt3AjiNGGgb-115" value="judul_buku" style="ellipse;whiteSpace=wrap;html=1;align=center;" vertex="1" parent="1">
          <mxGeometry x="740" y="620" width="100" height="40" as="geometry" />
        </mxCell>
        <mxCell id="ENw4jUdtAGt3AjiNGGgb-116" value="&lt;u&gt;nomor_buku&lt;/u&gt;" style="ellipse;whiteSpace=wrap;html=1;align=center;" vertex="1" parent="1">
          <mxGeometry x="740" y="690" width="100" height="40" as="geometry" />
        </mxCell>
        <mxCell id="ENw4jUdtAGt3AjiNGGgb-117" value="tahun_terbit" style="ellipse;whiteSpace=wrap;html=1;align=center;" vertex="1" parent="1">
          <mxGeometry x="820" y="750" width="100" height="40" as="geometry" />
        </mxCell>
        <mxCell id="ENw4jUdtAGt3AjiNGGgb-118" value="penerbit" style="ellipse;whiteSpace=wrap;html=1;align=center;" vertex="1" parent="1">
          <mxGeometry x="970" y="750" width="100" height="40" as="geometry" />
        </mxCell>
        <mxCell id="ENw4jUdtAGt3AjiNGGgb-119" value="jenis_buku" style="ellipse;whiteSpace=wrap;html=1;align=center;" vertex="1" parent="1">
          <mxGeometry x="1020" y="690" width="100" height="40" as="geometry" />
        </mxCell>
        <mxCell id="ENw4jUdtAGt3AjiNGGgb-120" value="pengarang" style="ellipse;whiteSpace=wrap;html=1;align=center;" vertex="1" parent="1">
          <mxGeometry x="1080" y="640" width="100" height="40" as="geometry" />
        </mxCell>
        <mxCell id="ENw4jUdtAGt3AjiNGGgb-121" value="" style="endArrow=none;html=1;rounded=0;exitX=0.521;exitY=0.944;exitDx=0;exitDy=0;exitPerimeter=0;" edge="1" parent="1" source="ENw4jUdtAGt3AjiNGGgb-95" target="ENw4jUdtAGt3AjiNGGgb-114">
          <mxGeometry relative="1" as="geometry">
            <mxPoint x="909.75" y="480" as="sourcePoint" />
            <mxPoint x="910" y="600" as="targetPoint" />
            <Array as="points">
              <mxPoint x="910" y="530" />
            </Array>
          </mxGeometry>
        </mxCell>
        <mxCell id="ENw4jUdtAGt3AjiNGGgb-134" value="Many" style="edgeLabel;html=1;align=center;verticalAlign=middle;resizable=0;points=[];" vertex="1" connectable="0" parent="ENw4jUdtAGt3AjiNGGgb-121">
          <mxGeometry x="-0.0703" y="-1" relative="1" as="geometry">
            <mxPoint as="offset" />
          </mxGeometry>
        </mxCell>
        <mxCell id="ENw4jUdtAGt3AjiNGGgb-127" value="" style="endArrow=none;html=1;rounded=0;entryX=0.25;entryY=1;entryDx=0;entryDy=0;" edge="1" parent="1" source="ENw4jUdtAGt3AjiNGGgb-116" target="ENw4jUdtAGt3AjiNGGgb-114">
          <mxGeometry relative="1" as="geometry">
            <mxPoint x="950" y="700" as="sourcePoint" />
            <mxPoint x="1050" y="660" as="targetPoint" />
          </mxGeometry>
        </mxCell>
        <mxCell id="ENw4jUdtAGt3AjiNGGgb-128" value="" style="endArrow=none;html=1;rounded=0;exitX=0.904;exitY=0.15;exitDx=0;exitDy=0;exitPerimeter=0;" edge="1" parent="1" source="ENw4jUdtAGt3AjiNGGgb-115" target="ENw4jUdtAGt3AjiNGGgb-114">
          <mxGeometry relative="1" as="geometry">
            <mxPoint x="950" y="700" as="sourcePoint" />
            <mxPoint x="1110" y="700" as="targetPoint" />
          </mxGeometry>
        </mxCell>
        <mxCell id="ENw4jUdtAGt3AjiNGGgb-130" value="" style="endArrow=none;html=1;rounded=0;exitX=0.326;exitY=1.025;exitDx=0;exitDy=0;exitPerimeter=0;" edge="1" parent="1" source="ENw4jUdtAGt3AjiNGGgb-114" target="ENw4jUdtAGt3AjiNGGgb-120">
          <mxGeometry relative="1" as="geometry">
            <mxPoint x="950" y="700" as="sourcePoint" />
            <mxPoint x="1110" y="700" as="targetPoint" />
          </mxGeometry>
        </mxCell>
        <mxCell id="ENw4jUdtAGt3AjiNGGgb-131" value="" style="endArrow=none;html=1;rounded=0;exitX=0.25;exitY=1;exitDx=0;exitDy=0;entryX=0.383;entryY=0.043;entryDx=0;entryDy=0;entryPerimeter=0;" edge="1" parent="1" source="ENw4jUdtAGt3AjiNGGgb-114" target="ENw4jUdtAGt3AjiNGGgb-119">
          <mxGeometry relative="1" as="geometry">
            <mxPoint x="900" y="610" as="sourcePoint" />
            <mxPoint x="1110" y="700" as="targetPoint" />
          </mxGeometry>
        </mxCell>
        <mxCell id="ENw4jUdtAGt3AjiNGGgb-132" value="" style="endArrow=none;html=1;rounded=0;exitX=0.276;exitY=-0.011;exitDx=0;exitDy=0;exitPerimeter=0;entryX=0.25;entryY=1;entryDx=0;entryDy=0;" edge="1" parent="1" source="ENw4jUdtAGt3AjiNGGgb-118" target="ENw4jUdtAGt3AjiNGGgb-114">
          <mxGeometry relative="1" as="geometry">
            <mxPoint x="950" y="700" as="sourcePoint" />
            <mxPoint x="1110" y="700" as="targetPoint" />
          </mxGeometry>
        </mxCell>
        <mxCell id="ENw4jUdtAGt3AjiNGGgb-133" value="" style="endArrow=none;html=1;rounded=0;" edge="1" parent="1">
          <mxGeometry relative="1" as="geometry">
            <mxPoint x="865" y="748" as="sourcePoint" />
            <mxPoint x="880" y="590" as="targetPoint" />
          </mxGeometry>
        </mxCell>
      </root>
    </mxGraphModel>
  </diagram>
</mxfile>
